<svg width="24" height="24" viewBox="0 0 24 24" fill="none" xmlns="http://www.w3.org/2000/svg">
<path d="M20 3H19V1H17V3H7V1H5V3H4C3.47005 3.00158 2.96227 3.2128 2.58753 3.58753C2.2128 3.96227 2.00158 4.47005 2 5V21C2.00158 21.5299 2.2128 22.0377 2.58753 22.4125C2.96227 22.7872 3.47005 22.9984 4 23H20C20.5299 22.9984 21.0377 22.7872 21.4125 22.4125C21.7872 22.0377 21.9984 21.5299 22 21V5C21.9984 4.47005 21.7872 3.96227 21.4125 3.58753C21.0377 3.2128 20.5299 3.00158 20 3ZM20 21H4V10H20V21ZM20 8H4V5H20V8Z" fill="#02468B"/>
</svg>
