<svg id="check-boxes-24px" xmlns="http://www.w3.org/2000/svg" xmlns:xlink="http://www.w3.org/1999/xlink" width="24" height="24" viewBox="0 0 24 24">
  <defs>
    <radialGradient id="radial-gradient" cx="0.543" cy="0.5" r="1.152" gradientUnits="objectBoundingBox">
      <stop offset="0" stop-color="#fff" stop-opacity="0.243"/>
      <stop offset="0.329" stop-color="#ddd" stop-opacity="0.447"/>
      <stop offset="1" stop-color="gray"/>
    </radialGradient>
  </defs>
  <g id="checked">
    <rect id="Rectangle_2177" data-name="Rectangle 2177" width="14" height="14" transform="translate(5 5)" fill="url(#radial-gradient)"/>
    <path id="Path_496" data-name="Path 496" d="M0,0H24V24H0Z" fill="none"/>
    <path id="Path_497" data-name="Path 497" d="M19,3H5A2.006,2.006,0,0,0,3,5V19a2.006,2.006,0,0,0,2,2H19a2.006,2.006,0,0,0,2-2V5A2.006,2.006,0,0,0,19,3Zm0,16H5V5H19ZM17.99,9,16.58,7.58,9.99,14.17,7.41,11.6,5.99,13.01l4,3.99Z" transform="translate(0 0)"/>
  </g>
</svg>
