<svg width="50" height="40" xmlns="http://www.w3.org/2000/svg">
  <path stroke="null" fill="none" d="m0,0.1227l48.17178,0l0,30.74847l-48.17178,0l0,-30.74847z" id="Path_537"/>
  <path stroke="null" d="m43.07975,2l-36.51533,0a4.56442,3.64417 0 0 0 -4.5416,3.64417l-0.02282,32.79754l9.12883,-7.28833l31.95092,0a4.5781,3.65511 0 0 0 4.56442,-3.64417l0,-21.86503a4.5781,3.65511 0 0 0 -4.56442,-3.64417zm0,25.50921l-33.84515,0l-1.3465,1.07503l-1.32368,1.0568l0,-23.99686l36.51533,0l0,21.86503z" id="Path_538"/>
  <path stroke="null" d="m32.91954,12.05303l1.43579,0.94886l-13.06566,8.63465l-5.74315,-3.79545l1.43579,-0.94886l4.30737,2.84659l11.62987,-7.68579m0,-1.91806l-11.62987,7.68579l-4.30737,-2.84659l-4.33812,2.86692l8.64549,5.71351l15.968,-10.55271l-4.33813,-2.86692z" id="Path_503"/>
  <path id="svg_1" d="m13.77301,3.23965l7.45399,20.80943" opacity="0.5" fill-opacity="null" stroke-opacity="null" stroke-width="null" stroke="null" fill="none"/>
</svg>