<?xml version="1.0" encoding="utf-8"?>
<svg viewBox="1.971 1.988 45.619 36.494" width="50" height="40" xmlns="http://www.w3.org/2000/svg">
  <path stroke="null" fill="none" d="m0,0.1227l48.17178,0l0,30.74847l-48.17178,0l0,-30.74847z" id="Path_537"/>
  <path stroke="null" d="M 43.08 2 L 6.564 2 C 4.052 2.01 2.023 3.639 2.023 5.644 L 2 38.442 L 11.129 31.153 L 43.08 31.153 C 45.597 31.147 47.637 29.519 47.644 27.509 L 47.644 5.644 C 47.637 3.634 45.597 2.006 43.08 2 Z M 45.6 29.2 L 11.169 29.121 L 4 34.8 L 4 4 C 10.683 3.985 45.6 4 45.6 4 L 45.6 29.2 Z" id="Path_538"/>
  <path stroke="null" d="m32.91954,12.05303l1.43579,0.94886l-13.06566,8.63465l-5.74315,-3.79545l1.43579,-0.94886l4.30737,2.84659l11.62987,-7.68579m0,-1.91806l-11.62987,7.68579l-4.30737,-2.84659l-4.33812,2.86692l8.64549,5.71351l15.968,-10.55271l-4.33813,-2.86692z" id="Path_503"/>
  <path id="svg_1" d="m13.77301,3.23965l7.45399,20.80943" opacity="0.5" fill-opacity="null" stroke-opacity="null" stroke-width="null" stroke="null" fill="none"/>
  <path style="fill: rgb(216, 216, 216); stroke: rgb(255, 255, 255);" d="M 43.057 29.7 C 44.767 29.7 46.163 28.823 46.158 27.093"/>
  <path style="fill: rgb(216, 216, 216); stroke: rgb(255, 255, 255);" d="M 43.474 3.442 C 45.014 3.442 46.008 4.489 46.094 6.027"/>
  <path style="fill: rgb(216, 216, 216); stroke: rgb(255, 255, 255);" d="M 6.109 3.515 C 5.365 3.419 3.378 4.049 3.456 6.699"/>
</svg>