<svg width="17" height="18" viewBox="0 0 17 18" fill="none" xmlns="http://www.w3.org/2000/svg">
<path d="M8.492 0.666508C6.84417 0.668156 5.23383 1.1583 3.86452 2.07498C2.4952 2.99166 1.4284 4.29372 0.798944 5.81658C0.169491 7.33944 0.00565192 9.01474 0.328136 10.6307C0.65062 12.2467 1.44495 13.7307 2.61072 14.8953C3.77649 16.0599 5.26136 16.8528 6.87764 17.1737C8.49392 17.4945 10.169 17.329 11.6913 16.698C13.2135 16.0671 14.5145 14.999 15.4298 13.6287C16.3451 12.2585 16.8337 10.6477 16.8337 8.99984C16.8337 7.90479 16.6178 6.82048 16.1985 5.80889C15.7792 4.7973 15.1646 3.87827 14.3899 3.10434C13.6152 2.33041 12.6956 1.71675 11.6836 1.29845C10.6716 0.880153 9.58705 0.665413 8.492 0.666508ZM14.267 5.66651H11.8087C11.5479 4.63439 11.1616 3.63808 10.6587 2.69984C12.1788 3.22318 13.4596 4.27628 14.267 5.66651ZM8.50033 2.36651C9.20033 3.37642 9.73742 4.48998 10.092 5.66651H6.90866C7.26324 4.48998 7.80033 3.37642 8.50033 2.36651ZM2.05033 10.6665C1.76143 9.57417 1.76143 8.42551 2.05033 7.33317H4.867C4.79439 7.88585 4.75543 8.44243 4.75033 8.99984C4.75543 9.55725 4.79439 10.1138 4.867 10.6665H2.05033ZM2.73366 12.3332H5.192C5.4528 13.3653 5.83901 14.3616 6.342 15.2998C4.8203 14.7794 3.53852 13.7255 2.73366 12.3332ZM5.192 5.66651H2.73366C3.53852 4.27416 4.8203 3.22031 6.342 2.69984C5.83901 3.63808 5.4528 4.63439 5.192 5.66651ZM8.50033 15.6332C7.80033 14.6233 7.26324 13.5097 6.90866 12.3332H10.092C9.73742 13.5097 9.20033 14.6233 8.50033 15.6332ZM10.4503 10.6665H6.55033C6.46801 10.1146 6.42346 9.55778 6.417 8.99984C6.42313 8.44188 6.46768 7.88501 6.55033 7.33317H10.4503C10.533 7.88501 10.5775 8.44188 10.5837 8.99984C10.5772 9.55778 10.5326 10.1146 10.4503 10.6665ZM10.6587 15.2998C11.1616 14.3616 11.5479 13.3653 11.8087 12.3332H14.267C13.4596 13.7234 12.1788 14.7765 10.6587 15.2998ZM12.1337 10.6665C12.2063 10.1138 12.2452 9.55725 12.2503 8.99984C12.2452 8.44243 12.2063 7.88585 12.1337 7.33317H14.9503C15.2392 8.42551 15.2392 9.57417 14.9503 10.6665H12.1337Z" fill="white"/>
</svg>
