<svg width="21" height="20" viewBox="0 0 21 20" fill="none" xmlns="http://www.w3.org/2000/svg">
<path d="M2.81153 10.9439H3.65486V16.8472C3.6553 17.2944 3.83315 17.7231 4.14936 18.0394C4.46558 18.3556 4.89433 18.5334 5.34153 18.5339H15.4615C15.9087 18.5334 16.3375 18.3556 16.6537 18.0394C16.9699 17.7231 17.1478 17.2944 17.1482 16.8472V10.9439H17.9915C18.1582 10.9437 18.321 10.8941 18.4595 10.8014C18.598 10.7087 18.706 10.5771 18.7697 10.4231C18.8335 10.2691 18.8502 10.0997 18.8177 9.93628C18.7853 9.77282 18.7051 9.62264 18.5874 9.5047L10.9974 1.9172C10.9191 1.83881 10.8262 1.77662 10.7239 1.73419C10.6215 1.69176 10.5119 1.66992 10.4011 1.66992C10.2904 1.66992 10.1807 1.69176 10.0784 1.73419C9.97605 1.77662 9.88311 1.83881 9.80486 1.9172L2.21819 9.50053C2.10045 9.61847 2.02029 9.76865 1.98783 9.93211C1.95537 10.0956 1.97207 10.265 2.03582 10.419C2.09957 10.5729 2.20751 10.7046 2.34601 10.7973C2.48452 10.8899 2.64738 10.9395 2.81403 10.9397L2.81153 10.9439ZM8.71819 16.8472V12.6305H12.0915V16.8472H8.71819ZM10.4015 3.70303L15.4615 8.76303V16.8464H13.7749V12.6297C13.7744 12.1825 13.5966 11.7537 13.2804 11.4375C12.9641 11.1213 12.5354 10.9435 12.0882 10.943H8.71819C8.271 10.9435 7.84224 11.1213 7.52603 11.4375C7.20981 11.7537 7.03197 12.1825 7.03153 12.6297V16.8464H5.34153V8.76303L10.4015 3.70303Z" fill="white"/>
</svg>
