<svg width="18" height="18" viewBox="0 0 36 36" fill="none" xmlns="http://www.w3.org/2000/svg">
<path d="M18.1465 1.01711C17.8261 1.0179 17.5191 1.14573 17.2928 1.37257C17.0665 1.5994 16.9395 1.90671 16.9395 2.22711V11.4041C16.9298 11.5651 16.9545 11.7263 17.0117 11.8771C17.069 12.0279 17.1576 12.1649 17.2716 12.2789C17.3857 12.393 17.5226 12.4816 17.6734 12.5388C17.8242 12.5961 17.9854 12.6207 18.1465 12.6111C18.4663 12.6103 18.7729 12.4829 18.9991 12.2567C19.2252 12.0305 19.3527 11.724 19.3535 11.4041V2.22711C19.3843 2.06174 19.3744 1.89136 19.3247 1.73065C19.2751 1.56994 19.187 1.42374 19.0682 1.30464C18.9494 1.18555 18.8034 1.09714 18.6428 1.04705C18.4823 0.996955 18.3119 0.986678 18.1465 1.01711ZM6.55446 1.86511C5.30604 1.86669 4.10921 2.36333 3.22645 3.24609C2.34368 4.12886 1.84705 5.32569 1.84546 6.57411C1.86878 7.81571 2.3724 8.99996 3.2505 9.87807C4.1286 10.7562 5.31285 11.2598 6.55446 11.2831C7.80336 11.2831 9.00111 10.787 9.88422 9.90387C10.7673 9.02076 11.2635 7.82301 11.2635 6.57411C11.2635 5.3252 10.7673 4.12745 9.88422 3.24434C9.00111 2.36123 7.80336 1.86511 6.55446 1.86511ZM29.8545 1.86511C28.6069 1.86802 27.4114 2.36523 26.5297 3.24786C25.648 4.13048 25.152 5.32655 25.1505 6.57411C25.1738 7.81571 25.6774 8.99996 26.5555 9.87807C27.4336 10.7562 28.6178 11.2598 29.8595 11.2831C31.1084 11.2831 32.3061 10.787 33.1892 9.90387C34.0723 9.02076 34.5685 7.82301 34.5685 6.57411C34.5685 5.3252 34.0723 4.12745 33.1892 3.24434C32.3061 2.36123 31.1084 1.86511 29.8595 1.86511H29.8545ZM14.5195 2.83111C14.1996 2.8319 13.893 2.95932 13.6669 3.1855C13.4407 3.41169 13.3133 3.71823 13.3125 4.03811V9.59211C13.3125 9.91235 13.4397 10.2195 13.6661 10.4459C13.8926 10.6724 14.1997 10.7996 14.52 10.7996C14.8402 10.7996 15.1473 10.6724 15.3738 10.4459C15.6002 10.2195 15.7275 9.91235 15.7275 9.59211V4.03811C15.7371 3.87709 15.7124 3.71587 15.6552 3.56507C15.5979 3.41427 15.5094 3.27732 15.3953 3.16327C15.2812 3.04921 15.1443 2.96063 14.9935 2.90338C14.8427 2.84612 14.6815 2.82149 14.5205 2.83111H14.5195ZM21.8855 2.83111C21.5656 2.8319 21.259 2.95932 21.0329 3.1855C20.8067 3.41169 20.6792 3.71823 20.6785 4.03811V9.59211C20.6792 9.91198 20.8067 10.2185 21.0329 10.4447C21.259 10.6709 21.5656 10.7983 21.8855 10.7991C22.047 10.8099 22.2091 10.7862 22.3607 10.7295C22.5124 10.6728 22.6503 10.5845 22.7653 10.4704C22.8802 10.3564 22.9695 10.2191 23.0273 10.0679C23.0851 9.91659 23.11 9.75476 23.1005 9.59311V4.03811C23.1101 3.87682 23.0854 3.71533 23.028 3.56431C22.9705 3.41329 22.8817 3.27619 22.7673 3.16208C22.6529 3.04798 22.5156 2.95946 22.3644 2.90241C22.2133 2.84535 22.0517 2.82105 21.8905 2.83111H21.8855ZM6.55446 4.40111C6.85858 4.39065 7.1616 4.44283 7.4447 4.5544C7.72781 4.66597 7.98495 4.83455 8.20017 5.04968C8.41539 5.2648 8.58408 5.52187 8.69578 5.80493C8.80747 6.08799 8.85978 6.39098 8.84946 6.69511C8.85978 6.99923 8.80747 7.30222 8.69578 7.58528C8.58408 7.86834 8.41539 8.12541 8.20017 8.34054C7.98495 8.55566 7.72781 8.72424 7.4447 8.83581C7.1616 8.94738 6.85858 8.99956 6.55446 8.98911C6.25042 8.99942 5.94751 8.94714 5.66452 8.83551C5.38154 8.72387 5.12451 8.55527 4.9094 8.34016C4.6943 8.12505 4.52569 7.86803 4.41406 7.58504C4.30242 7.30205 4.25014 6.99914 4.26046 6.69511C4.25014 6.39107 4.30242 6.08816 4.41406 5.80517C4.52569 5.52218 4.6943 5.26516 4.9094 5.05005C5.12451 4.83494 5.38154 4.66634 5.66452 4.55471C5.94751 4.44307 6.25042 4.39079 6.55446 4.40111ZM29.8545 4.40111C30.1585 4.39079 30.4614 4.44307 30.7444 4.55471C31.0274 4.66634 31.2844 4.83494 31.4995 5.05005C31.7146 5.26516 31.8832 5.52218 31.9949 5.80517C32.1065 6.08816 32.1588 6.39107 32.1485 6.69511C32.1485 7.30351 31.9068 7.887 31.4766 8.31721C31.0464 8.74742 30.4629 8.98911 29.8545 8.98911C29.2461 8.98911 28.6626 8.74742 28.2324 8.31721C27.8021 7.887 27.5605 7.30351 27.5605 6.69511C27.5603 6.39382 27.6196 6.09545 27.7348 5.81707C27.85 5.53869 28.019 5.28575 28.2321 5.07271C28.4451 4.85967 28.698 4.6907 28.9764 4.57546C29.2548 4.46022 29.5532 4.40097 29.8545 4.40111ZM3.41546 12.8531C2.81267 12.8531 2.16234 13.231 1.70984 13.6835C1.25733 14.136 1.0023 14.7492 1.00046 15.3891V27.8261C1.0023 28.466 1.25733 29.0792 1.70984 29.5317C2.16234 29.9842 2.77553 30.2393 3.41546 30.2411H9.69446C10.3344 30.2393 10.9476 29.9842 11.4001 29.5317C11.8526 29.0792 12.1076 28.466 12.1095 27.8261V15.2681C12.1076 14.6282 11.8526 14.015 11.4001 13.5625C10.9476 13.11 10.3344 12.855 9.69446 12.8531H3.41546ZM26.7205 12.8531C26.2056 12.8531 25.4623 13.231 25.0098 13.6835C24.5573 14.136 24.3023 14.7492 24.3005 15.3891V27.8261C24.3023 28.466 24.5573 29.0792 25.0098 29.5317C25.4623 29.9842 26.0755 30.2393 26.7155 30.2411H33.0005C33.6404 30.2393 34.2536 29.9842 34.7061 29.5317C35.1586 29.0792 35.4136 28.466 35.4155 27.8261V15.2681C35.4136 14.6282 35.1586 14.015 34.7061 13.5625C34.2536 13.11 33.6404 12.855 33.0005 12.8531H26.7205ZM3.53646 15.3891H9.69446V27.7051H3.53646V15.3891ZM26.8365 15.3891H33.0005V27.7051H26.8405L26.8365 15.3891ZM15.7315 20.3391C15.5704 20.3295 15.4092 20.3541 15.2584 20.4114C15.1076 20.4686 14.9707 20.5572 14.8566 20.6713C14.7426 20.7853 14.654 20.9223 14.5967 21.0731C14.5395 21.2239 14.5148 21.3851 14.5245 21.5461C14.5253 21.866 14.6527 22.1725 14.8789 22.3987C15.105 22.6249 15.4116 22.7523 15.7315 22.7531H16.9385V32.8971H2.08746C1.777 32.9514 1.49642 33.1156 1.29688 33.3595C1.09734 33.6035 0.992141 33.911 1.00046 34.2261C1.02215 34.5391 1.15628 34.8336 1.37811 35.0555C1.59994 35.2773 1.8945 35.4114 2.20746 35.4331H34.2075C34.3748 35.4449 34.5427 35.4227 34.7012 35.3678C34.8597 35.3128 35.0054 35.2264 35.1295 35.1135C35.2536 35.0007 35.3536 34.8639 35.4234 34.7114C35.4932 34.5589 35.5313 34.3938 35.5355 34.2261C35.5421 34.0551 35.5112 33.8847 35.445 33.7268C35.3789 33.5689 35.279 33.4275 35.1523 33.3123C35.0257 33.1971 34.8755 33.111 34.7121 33.06C34.5487 33.009 34.3761 32.9944 34.2065 33.0171H19.4755V22.8751H20.6825C20.8435 22.8847 21.0047 22.8601 21.1555 22.8028C21.3063 22.7456 21.4432 22.657 21.5573 22.5429C21.6714 22.4289 21.7599 22.2919 21.8172 22.1411C21.8744 21.9903 21.8991 21.8291 21.8895 21.6681C21.8887 21.3482 21.7612 21.0417 21.5351 20.8155C21.3089 20.5893 21.0023 20.4619 20.6825 20.4611H15.7315V20.3391Z" fill="#02468B"/>
</svg>