<svg id="new_releases-24px" xmlns="http://www.w3.org/2000/svg" width="24" height="24" viewBox="0 0 24 24">
  <path id="Path_492" data-name="Path 492" d="M0,0H24V24H0Z" fill="none"/>
  <path id="Path_493" data-name="Path 493" d="M23,12,20.56,9.22l.34-3.68-3.61-.82L15.4,1.54,12,3,8.6,1.54,6.71,4.72,3.1,5.53l.34,3.68L1,12l2.44,2.78L3.1,18.47l3.61.82L8.6,22.47,12,21l3.4,1.46,1.89-3.18,3.61-.82-.34-3.68Zm-4.51,2.11.26,2.79-2.74.62-1.43,2.41L12,18.82,9.42,19.93,7.99,17.52,5.25,16.9l.26-2.8L3.66,12,5.51,9.88,5.25,7.1l2.74-.61L9.42,4.08,12,5.18l2.58-1.11,1.43,2.41,2.74.62-.26,2.79L20.34,12ZM11,15h2v2H11Zm0-8h2v6H11Z"/>
</svg>
