<svg width="17" height="18" viewBox="0 0 17 18" fill="none" xmlns="http://www.w3.org/2000/svg">
<path d="M9.72295 17.4577C9.33586 17.8036 8.81132 17.9985 8.26389 18C7.71646 17.9985 7.19192 17.8036 6.80483 17.4577C6.41774 17.1118 6.19955 16.643 6.19792 16.1538H10.3299C10.3282 16.643 10.11 17.1118 9.72295 17.4577Z" fill="#003366"/>
<path d="M14.4618 7.84615V12.4615L16.5278 14.3077V15.2308H0V14.3077L2.06597 12.4615V7.84615C2.06597 5.00308 3.76007 2.64 6.71441 2.01231V1.38462C6.71441 1.01739 6.87766 0.66521 7.16824 0.405545C7.45883 0.145879 7.85294 0 8.26389 0C8.67484 0 9.06895 0.145879 9.35954 0.405545C9.65012 0.66521 9.81337 1.01739 9.81337 1.38462V2.01231C12.778 2.64 14.4618 5.01231 14.4618 7.84615Z" fill="#003366"/>
</svg>
