<svg width="19" height="18" viewBox="0 0 19 18" fill="none" xmlns="http://www.w3.org/2000/svg">
<path d="M9.5 4C8.90666 4 8.32664 4.17595 7.83329 4.50559C7.33994 4.83524 6.95543 5.30377 6.72836 5.85195C6.5013 6.40013 6.44189 7.00333 6.55765 7.58527C6.6734 8.16721 6.95912 8.70176 7.37868 9.12132C7.79824 9.54088 8.33279 9.8266 8.91473 9.94235C9.49667 10.0581 10.0999 9.9987 10.6481 9.77164C11.1962 9.54457 11.6648 9.16006 11.9944 8.66671C12.3241 8.17336 12.5 7.59334 12.5 7C12.5 6.20435 12.1839 5.44129 11.6213 4.87868C11.0587 4.31607 10.2957 4 9.5 4Z" fill="white"/>
<path d="M9.5 0C7.71997 0 5.97991 0.527841 4.49987 1.51677C3.01983 2.50571 1.86628 3.91131 1.18509 5.55585C0.5039 7.20038 0.32567 9.00998 0.672936 10.7558C1.0202 12.5016 1.87737 14.1053 3.13604 15.364C4.39471 16.6226 5.99836 17.4798 7.74419 17.8271C9.49002 18.1743 11.2996 17.9961 12.9442 17.3149C14.5887 16.6337 15.9943 15.4802 16.9832 14.0001C17.9722 12.5201 18.5 10.78 18.5 9C18.4973 6.61389 17.5482 4.32628 15.861 2.63905C14.1737 0.951808 11.8861 0.00272232 9.5 0ZM14.6377 14.7381C14.6249 13.8949 14.2814 13.0905 13.6811 12.4982C13.0808 11.9058 12.2719 11.573 11.4286 11.5714H7.57143C6.72812 11.573 5.91918 11.9058 5.31892 12.4982C4.71865 13.0905 4.3751 13.8949 4.36229 14.7381C3.19651 13.6972 2.3744 12.3267 2.00483 10.8081C1.63525 9.28958 1.73564 7.69458 2.2927 6.23434C2.84976 4.7741 3.83722 3.5175 5.12431 2.63094C6.41141 1.74437 7.93744 1.26966 9.50032 1.26966C11.0632 1.26966 12.5892 1.74437 13.8763 2.63094C15.1634 3.5175 16.1509 4.7741 16.7079 6.23434C17.265 7.69458 17.3654 9.28958 16.9958 10.8081C16.6262 12.3267 15.8041 13.6972 14.6384 14.7381H14.6377Z" fill="white"/>
</svg>
